<?xml version="1.0" standalone="no"?>
<!DOCTYPE svg PUBLIC "-//W3C//DTD SVG 20010904//EN"
 "http://www.w3.org/TR/2001/REC-SVG-20010904/DTD/svg10.dtd">
<svg version="1.0" xmlns="http://www.w3.org/2000/svg"
 width="920.000000pt" height="920.000000pt" viewBox="0 0 920.000000 920.000000"
 preserveAspectRatio="xMidYMid meet">

<g transform="translate(0.000000,920.000000) scale(0.100000,-0.100000)"
fill="#000000" stroke="none">
<path d="M2615 6971 c-93 -26 -164 -69 -240 -146 -106 -105 -165 -237 -165
-365 0 -44 4 -56 29 -81 39 -38 83 -39 120 -1 22 22 29 40 34 92 14 133 95
246 215 303 l67 32 1925 0 1925 0 67 -32 c84 -40 141 -97 181 -181 28 -59 32
-77 32 -152 0 -76 -4 -93 -32 -151 -39 -80 -111 -150 -191 -187 l-57 -27
-1627 -5 -1627 -5 -23 -23 c-34 -33 -31 -97 5 -128 l28 -24 1612 0 c1778 0
1663 -4 1797 63 41 20 91 58 136 102 174 173 214 424 101 640 -44 84 -155 194
-237 234 -134 65 14 61 -2095 60 -1787 0 -1924 -2 -1980 -18z"/>
<path d="M2590 5144 c-180 -48 -318 -185 -365 -365 -19 -71 -19 -277 0 -348
47 -179 187 -319 366 -366 81 -22 3017 -22 3098 0 94 25 162 65 236 139 112
113 155 223 155 403 0 56 -5 126 -11 155 -38 184 -185 333 -375 383 -86 22
-3020 21 -3104 -1z m3121 -197 c67 -32 133 -100 161 -165 27 -60 36 -199 18
-283 -17 -79 -75 -167 -138 -209 -97 -64 -1 -61 -1633 -58 l-1484 3 -47 22
c-66 30 -141 104 -169 166 -21 46 -24 67 -24 182 0 112 3 137 21 176 42 90
124 161 214 185 35 10 379 12 1535 11 l1490 -2 56 -28z"/>
<path d="M2626 3294 c-188 -45 -356 -215 -401 -405 -19 -81 -19 -188 0 -259
52 -195 210 -353 405 -405 47 -13 328 -15 1969 -15 2128 0 1965 -5 2106 68
207 109 323 359 274 594 -41 200 -227 386 -427 427 -37 8 -619 11 -1960 10
-1609 -1 -1916 -3 -1966 -15z m3956 -196 c106 -49 185 -142 214 -250 19 -72
18 -125 -4 -196 -38 -119 -122 -205 -241 -242 -62 -20 -89 -20 -1945 -20
-1581 0 -1889 2 -1934 14 -175 47 -296 216 -278 388 16 155 135 292 283 327
22 5 857 8 1943 8 l1905 -2 57 -27z"/>
</g>
</svg>
